<svg xmlns="http://www.w3.org/2000/svg" viewBox="0 0 108 108" width="108" height="108">
  <rect width="108" height="108" fill="#F7F3E8"/>
  <path fill="#111111" d="M29,16h50c6.6,0 12,5.4 12,12v14c0,4.4 -3.6,8 -8,8h-5v6c0,3.3 -2.7,6 -6,6h-5v7h10c6.6,0 12,5.4 12,12v9h-8v-7c0,-3.3 -2.7,-6 -6,-6h-8v13h-26v-13h-8c-3.3,0 -6,2.7 -6,6v7h-8v-9c0,-6.6 5.4,-12 12,-12h10v-7h-5c-3.3,0 -6,-2.7 -6,-6v-6h-5c-4.4,0 -8,-3.6 -8,-8v-14c0,-6.6 5.4,-12 12,-12z"/>
  <path fill="#FFB3C7" d="M33,20h42c6.6,0 12,5.4 12,12v8c0,3.3 -2.7,6 -6,6h-8c-2.4,0 -4.7,-1 -6.4,-2.7l-3.3,-3.3c-1.4,-1.4 -3.3,-2.2 -5.3,-2.2h-8c-2,0 -3.9,0.8 -5.3,2.2l-3.3,3.3c-1.7,1.7 -4,2.7 -6.4,2.7h-8c-3.3,0 -6,-2.7 -6,-6v-8c0,-6.6 5.4,-12 12,-12z"/>
  <path fill="#AED8FF" d="M38,58h32v9c0,5 -4,9 -9,9h-14c-5,0 -9,-4 -9,-9z"/>
  <path fill="#FFD24A" d="M30,49h48v7h-48z"/>
  <path fill="#111111" d="M34,52h7v3h-7zM44,52h7v3h-7zM54,52h7v3h-7zM64,52h7v3h-7z"/>
</svg>